<svg width="32" height="32" viewBox="0 0 16 16" fill="none" xmlns="http://www.w3.org/2000/svg">
<path d="M8.01708 16C3.74445 15.9963 0.224132 12.6466 0.0102227 8.3811C-0.203686 4.11563 2.96386 0.430766 7.2147 0V3.24026C4.80001 3.64816 3.07753 5.80457 3.21412 8.24865C3.35071 10.6927 5.30276 12.6439 7.74787 12.7805C10.193 12.917 12.3503 11.1953 12.7584 8.78159H16C15.5826 12.8773 12.1349 15.9945 8.01628 16H8.01708Z" fill="#006AF6"/>
<path d="M12.8402 7H16L15.9992 6.99922C15.6203 3.30169 12.6972 0.378575 9 0V3.16013C10.9666 3.49262 12.5074 5.03329 12.8402 7Z" fill="#A84ED4"/>
</svg>
